<svg width="16" height="18" viewBox="0 0 16 18" fill="none" xmlns="http://www.w3.org/2000/svg">
<path d="M7.63057 9.38207e-08C5.31536 -0.000486482 3.42107 1.89171 3.42152 4.20692V4.20911C3.42243 6.52332 5.31637 8.41424 7.63057 8.4138C9.94377 8.4129 11.8344 6.52231 11.8353 4.20911V4.20692C11.8357 1.89272 9.94478 0.000896161 7.63057 9.38207e-08ZM7.62839 1.56857C9.09525 1.56914 10.267 2.74006 10.2667 4.20692C10.2662 5.67311 9.09458 6.84472 7.62839 6.84528C6.16152 6.84559 4.99059 5.67379 4.99003 4.20692C4.98972 2.7395 6.16085 1.56834 7.62839 1.56857ZM7.63057 8.8994C5.20391 8.8994 3.31859 9.63669 2.03452 10.597C0.750456 11.5574 0 12.6679 0 13.7932V14.0294L0.131263 14.2263C0.838058 15.2865 2.89843 18 7.63056 18C9.5253 18 11.197 17.3438 12.4871 16.5605C13.7774 15.7772 14.6759 14.9072 15.1299 14.2262L15.2611 14.0293V13.7931C15.2611 12.6674 14.5089 11.5571 13.2244 10.5969C11.9398 9.63662 10.0572 8.89929 7.63055 8.89929L7.63057 8.8994ZM7.63057 10.468C9.74171 10.468 11.2807 11.1013 12.2859 11.8527C13.1888 12.5277 13.4748 13.2575 13.5503 13.5963C13.2231 13.9996 12.6386 14.6335 11.6733 15.2195C10.5663 15.8916 9.15926 16.4314 7.63046 16.4314C3.75531 16.4314 2.40392 14.6786 1.68662 13.6268C1.75094 13.3 2.05645 12.5398 2.97517 11.8526C3.97986 11.1012 5.51933 10.4679 7.63046 10.4679L7.63057 10.468Z" fill="#AAAAAA"/>
</svg>